<svg xmlns="http://www.w3.org/2000/svg" width="23" height="23" fill="none"><path fill="#000" d="M11.44 6.774c-2.84 0-5.193 2.313-5.193 5.193a5.176 5.176 0 0 0 5.192 5.192c2.88 0 5.192-2.353 5.192-5.192 0-2.84-2.352-5.193-5.192-5.193Zm0 8.519a3.341 3.341 0 0 1-3.327-3.326c0-1.826 1.5-3.327 3.326-3.327 1.825 0 3.326 1.501 3.326 3.327 0 1.825-1.5 3.326-3.326 3.326ZM16.834 7.83a1.176 1.176 0 1 0 0-2.353 1.176 1.176 0 0 0 0 2.352Z"/><path fill="#000" d="M19.877 3.61c-1.055-1.095-2.556-1.663-4.26-1.663H7.261c-3.53 0-5.882 2.353-5.882 5.882v8.316c0 1.744.568 3.245 1.704 4.34 1.095 1.055 2.555 1.582 4.219 1.582h8.275c1.744 0 3.204-.568 4.259-1.582 1.095-1.055 1.663-2.555 1.663-4.3V7.83c0-1.704-.568-3.164-1.622-4.219Zm-.163 12.575c0 1.258-.446 2.272-1.176 2.962-.73.69-1.744 1.054-2.961 1.054H7.302c-1.217 0-2.231-.365-2.962-1.054-.73-.73-1.095-1.745-1.095-3.002V7.829c0-1.217.365-2.23 1.095-2.961.69-.69 1.745-1.055 2.962-1.055h8.356c1.217 0 2.23.365 2.961 1.095.69.73 1.095 1.745 1.095 2.921v8.356Z"/></svg>