<svg xmlns="http://www.w3.org/2000/svg" width="22" height="22" fill="none"><path fill="#000" d="M21.14 4.705a8.41 8.41 0 0 1-2.389.657 4.175 4.175 0 0 0 1.831-2.303 8.266 8.266 0 0 1-2.643 1.01 4.16 4.16 0 0 0-7.197 2.845c0 .326.035.644.108.95A11.79 11.79 0 0 1 2.273 3.51a4.167 4.167 0 0 0 1.29 5.56 4.06 4.06 0 0 1-1.887-.52v.051c0 2.02 1.435 3.7 3.338 4.082a4.189 4.189 0 0 1-1.095.147c-.267 0-.529-.026-.782-.078a4.167 4.167 0 0 0 3.888 2.892 8.34 8.34 0 0 1-6.161 1.723 11.653 11.653 0 0 0 6.372 1.882c7.657 0 11.842-6.347 11.842-11.85 0-.181-.004-.362-.013-.538a8.54 8.54 0 0 0 2.076-2.157Z"/></svg>