<svg xmlns="http://www.w3.org/2000/svg" width="22" height="22" fill="none"><path fill="#000" d="M15.714 11c0-.303-.123-.524-.368-.663L9.06 6.41c-.253-.164-.52-.172-.798-.025a.731.731 0 0 0-.405.688v7.857c0 .31.135.54.405.687a.849.849 0 0 0 .38.098c.165 0 .304-.04.418-.122l6.286-3.929c.245-.139.368-.36.368-.663ZM22 11c0 .786-.004 1.4-.012 1.842-.008.442-.043 1-.105 1.675a13.566 13.566 0 0 1-.276 1.811c-.13.598-.413 1.101-.847 1.51-.434.41-.941.647-1.522.712-1.817.205-4.563.307-8.238.307s-6.42-.102-8.238-.307a2.616 2.616 0 0 1-1.528-.712 2.854 2.854 0 0 1-.853-1.51 15.196 15.196 0 0 1-.264-1.81 24.08 24.08 0 0 1-.105-1.676A105.79 105.79 0 0 1 0 11c0-.786.004-1.4.012-1.841.008-.442.043-1 .105-1.676a13.57 13.57 0 0 1 .276-1.81c.13-.598.413-1.102.847-1.511.434-.41.941-.647 1.522-.712C4.58 3.245 7.325 3.143 11 3.143s6.42.102 8.238.307c.58.065 1.09.303 1.528.712.438.41.723.913.853 1.51.115.532.203 1.136.264 1.81.062.676.097 1.235.105 1.677C21.996 9.6 22 10.214 22 11Z"/></svg>