<svg xmlns="http://www.w3.org/2000/svg" version="1.1" xmlns:xlink="http://www.w3.org/1999/xlink" xmlns:svgjs="http://svgjs.dev/svgjs" width="140" height="28"><svg xmlns="http://www.w3.org/2000/svg" width="140" height="28" fill="none"><path fill="#322F2E" d="M23.2 7.36v18.88c0 .36-.24.6-.6.6h-4.48c-.36 0-.56-.24-.6-.6l-.12-1.48c-1.4 1.56-3.28 2.64-5.76 2.64-5.56 0-9.68-4.68-9.68-10.52S6.08 6.36 11.64 6.36c2.36 0 4.32 1.12 5.76 2.76l.12-1.68c.04-.36.24-.6.6-.6h4.48c.36-.08.6.16.6.52Zm-6.28 9.44c0-2.68-1.92-4.92-4.52-4.92-2.64 0-4.56 2.12-4.56 4.92 0 2.84 1.92 4.96 4.56 4.96 2.6 0 4.52-2.28 4.52-4.96ZM41.08 8.24l-1.36 3.52c-.16.48-.52.56-1 .44-.4-.12-.92-.32-1.68-.32-2.56 0-4.08 1.88-4.08 4.36v10c0 .36-.24.6-.6.6h-4.92c-.36 0-.6-.24-.6-.6V7.36c0-.36.24-.6.6-.6h4.72c.36 0 .56.24.6.6l.16 2.32c1.04-1.96 2.72-3.4 5.16-3.4 1.2 0 2.2.48 2.8 1.04.32.32.32.64.2.92ZM55.8 20.12c.32-.28.6-.28.92 0l2.96 2.84c.24.24.28.56.04.88-1.88 2.16-4.68 3.56-7.88 3.56-5.8 0-10.28-4.64-10.28-10.52S46.08 6.36 51.84 6.36c3.12 0 5.88 1.4 7.76 3.56.24.28.2.6-.04.88l-3 2.8c-.28.28-.56.24-.88-.04-1.16-1-2.32-1.56-3.68-1.56-2.68 0-4.56 2.08-4.56 4.84s1.88 4.84 4.56 4.84c1.44 0 2.64-.56 3.8-1.56ZM82.64 7.36v18.88c0 .36-.24.6-.6.6h-4.48c-.36 0-.56-.24-.6-.6l-.12-1.48c-1.4 1.56-3.28 2.64-5.76 2.64-5.56 0-9.68-4.68-9.68-10.52s4.12-10.52 9.68-10.52c2.36 0 4.32 1.12 5.76 2.76l.12-1.68c.04-.36.24-.6.6-.6h4.48c.36-.08.6.16.6.52Zm-6.28 9.44c0-2.68-1.92-4.92-4.52-4.92-2.64 0-4.56 2.12-4.56 4.92 0 2.84 1.92 4.96 4.56 4.96 2.6 0 4.52-2.28 4.52-4.96ZM100.52 8.24l-1.36 3.52c-.16.48-.52.56-1.04.44-.4-.12-.92-.32-1.68-.32-2.56 0-4.08 1.88-4.08 4.36v10c0 .36-.24.6-.6.6h-4.92c-.36 0-.6-.24-.6-.6V7.36c0-.36.24-.6.6-.6h4.72c.36 0 .56.24.6.6l.16 2.32c1.04-1.96 2.72-3.4 5.16-3.4 1.2 0 2.2.48 2.8 1.04.36.32.36.64.24.92ZM115.08 7.36v3.72c0 .36-.24.6-.6.6h-2.88V26.2c0 .36-.24.6-.6.6h-4.92c-.36 0-.6-.24-.6-.6V11.72h-2.88c-.36 0-.6-.24-.6-.6V7.36c0-.36.24-.6.6-.6h2.88V1.24c0-.36.24-.6.6-.6H111c.36 0 .6.24.6.6v5.52h2.88c.36 0 .6.24.6.6ZM138.04 7.36v18.88c0 .36-.24.6-.6.6h-4.48c-.36 0-.56-.24-.6-.6l-.12-1.48c-1.4 1.56-3.28 2.64-5.76 2.64-5.56 0-9.68-4.68-9.68-10.52s4.12-10.52 9.68-10.52c2.36 0 4.32 1.12 5.76 2.76l.12-1.68c.04-.36.24-.6.6-.6h4.48c.36-.08.6.16.6.52Zm-6.28 9.44c0-2.68-1.92-4.92-4.52-4.92-2.64 0-4.56 2.12-4.56 4.92 0 2.84 1.92 4.96 4.56 4.96 2.6 0 4.52-2.28 4.52-4.96Z"></path></svg><style>@media (prefers-color-scheme: light) { :root { filter: contrast(1) brightness(0.1); } }
@media (prefers-color-scheme: dark) { :root { filter: none; } }
</style></svg>