<svg xmlns="http://www.w3.org/2000/svg">

  <symbol id="instagram" xmlns="http://www.w3.org/2000/svg" fill="none">
    <path fill="currentColor" d="M11.44 6.774c-2.84 0-5.193 2.313-5.193 5.193a5.176 5.176 0 0 0 5.192 5.192c2.88 0 5.192-2.353 5.192-5.192 0-2.84-2.352-5.193-5.192-5.193Zm0 8.519a3.341 3.341 0 0 1-3.327-3.326c0-1.826 1.5-3.327 3.326-3.327 1.825 0 3.326 1.501 3.326 3.327 0 1.825-1.5 3.326-3.326 3.326ZM16.834 7.83a1.176 1.176 0 1 0 0-2.353 1.176 1.176 0 0 0 0 2.352Z"/>
    <path fill="currentColor" d="M19.877 3.61c-1.055-1.095-2.556-1.663-4.26-1.663H7.261c-3.53 0-5.882 2.353-5.882 5.882v8.316c0 1.744.568 3.245 1.704 4.34 1.095 1.055 2.555 1.582 4.219 1.582h8.275c1.744 0 3.204-.568 4.259-1.582 1.095-1.055 1.663-2.555 1.663-4.3V7.83c0-1.704-.568-3.164-1.622-4.219Zm-.163 12.575c0 1.258-.446 2.272-1.176 2.962-.73.69-1.744 1.054-2.961 1.054H7.302c-1.217 0-2.231-.365-2.962-1.054-.73-.73-1.095-1.745-1.095-3.002V7.829c0-1.217.365-2.23 1.095-2.961.69-.69 1.745-1.055 2.962-1.055h8.356c1.217 0 2.23.365 2.961 1.095.69.73 1.095 1.745 1.095 2.921v8.356Z"/>
  </symbol>

  <symbol id="law" xmlns="http://www.w3.org/2000/svg" fill="none">
    <path fill="#000" d="M70.457 63.148a.173.173 0 0 1-.161-.11L47.226 3.104a.173.173 0 0 1 .1-.222.172.172 0 0 1 .22.098l23.071 59.936a.17.17 0 0 1-.099.22.152.152 0 0 1-.061.013ZM89.623 56.522l-4.195-10.884-.024-.058h-.727l-4.243 10.983-5.01-12.935h-1.063L79.977 58.2l.022.058h.776l4.266-11.063 4.257 11.063h.751l5.638-14.63h-1.08l-4.984 12.894ZM99.329 58.258h7.886v-.927h-6.883v-6.297h5.676v-.927h-5.676v-5.551h6.883v-.928h-7.886v14.63ZM133.813 43.628H132.6l-7.211 7.714v-7.714h-1.001v14.63h1.001v-5.594l1.576-1.706 6.428 7.27.028.03h1.278l-7.056-8.011 6.17-6.62ZM111.979 58.258h7.886v-.927h-6.883v-6.297h5.675v-.927h-5.675v-5.551h6.883v-.928h-7.886v14.63ZM79.856 40.158h1.053L75.27 25.523h-.824l-5.634 14.635h1.05l1.66-4.315h6.665l1.668 4.315Zm-2.022-5.24h-5.955l2.978-7.74 2.977 7.74ZM97.104 26.46h5.168v13.705h1.002V26.46h5.168v-.927H97.104v.927ZM118.336 19.694c1.169-1.255 1.788-3.037 1.788-5.152 0-4.597-2.842-7.34-7.602-7.34h-4.074v14.631h4.074c2.537 0 4.492-.72 5.814-2.139Zm.785-5.152c0 2.368-.854 6.34-6.575 6.34h-3.097V8.154h3.097c5.721 0 6.575 4.001 6.575 6.388ZM93.538 9.216l8.897 12.617h.74V7.203h-.977V19.82L93.303 7.203h-.742v14.63h.977V9.216ZM130.827 6.864c-4.264 0-7.359 3.22-7.359 7.654 0 4.434 3.095 7.652 7.359 7.652 4.264 0 7.361-3.218 7.361-7.652s-3.095-7.654-7.361-7.654Zm6.36 7.654c0 3.945-2.615 6.702-6.358 6.702-3.742 0-6.357-2.755-6.357-6.702 0-3.945 2.613-6.703 6.357-6.703 3.743 0 6.358 2.758 6.358 6.703ZM151.879 7.203V19.82l-8.894-12.617h-.743v14.63h.978V9.216l8.896 12.617h.741V7.203h-.978ZM71.757 20.906h-6.883V7.203H63.87v14.63h7.886v-.927ZM80.867 22.17c4.264 0 7.36-3.218 7.36-7.652s-3.095-7.654-7.36-7.654c-4.264 0-7.36 3.22-7.36 7.654 0 4.434 3.096 7.652 7.36 7.652Zm-6.358-7.652c0-3.945 2.613-6.703 6.358-6.703 3.742 0 6.357 2.756 6.357 6.703 0 3.945-2.613 6.702-6.357 6.702-3.743 0-6.358-2.757-6.358-6.702ZM85.238 40.163h1.003V33.97h3.124l4.301 6.193h1.187l-4.411-6.262c2.527-.373 3.434-2.372 3.434-4.142 0-1.953-1.131-4.236-4.319-4.236h-4.319v14.64Zm4.319-13.712c3.077 0 3.316 2.532 3.316 3.308 0 .988-.323 3.283-3.316 3.283H86.24v-6.591h3.317ZM9.619 31.431s.001 0 0 0c.001 0 .001 0 0 0h14.82a1.053 1.053 0 1 0 0-2.104H10.675V7.93a1.055 1.055 0 0 0-2.109 0v22.448a1.05 1.05 0 0 0 1.053 1.053Z"/>
    <path fill="#000" d="m19.403 57.786.004-.008 18.057-46.912 4.412 11.46h-6.598a1.054 1.054 0 1 0 0 2.106h7.41l2.434 6.326a1.055 1.055 0 0 0 1.97-.755L38.449 7.552l-.01-.026-.023-.049c-.007-.016-.016-.03-.023-.047a.492.492 0 0 0-.055-.09c-.01-.012-.017-.023-.026-.036-.01-.016-.023-.03-.034-.045l-.03-.035-.038-.042-.035-.032c-.012-.013-.027-.024-.04-.037l-.038-.03a.641.641 0 0 0-.084-.057l-.05-.03-.04-.02a.56.56 0 0 0-.058-.025l-.02-.009a.775.775 0 0 0-.078-.025l-.04-.011c-.018-.006-.038-.01-.057-.013l-.045-.009-.055-.005c-.016-.002-.033-.004-.05-.004h-.101c-.017 0-.033.002-.05.004l-.054.005a.404.404 0 0 0-.046.01.67.67 0 0 0-.058.012l-.04.01a.803.803 0 0 0-.062.02c-.006.003-.011.004-.019.006-.007.002-.012.006-.02.01-.02.007-.038.016-.058.025l-.038.02c-.017.009-.035.018-.051.029a.641.641 0 0 0-.084.056l-.039.03c-.014.01-.027.023-.042.036l-.032.03a.44.44 0 0 0-.04.043l-.03.032-.036.048c-.01.01-.017.023-.026.036l-.03.05-.025.04a.58.58 0 0 0-.023.048l-.022.05-.011.025-18.057 46.913-7.822-20.307a1.055 1.055 0 0 0-1.97.752l8.803 22.87c.004.008.008.013.01.02a1.033 1.033 0 0 0 .165.277c.026.03.053.06.082.087.013.013.028.024.042.037.02.018.042.034.066.05l.046.033c.032.022.065.04.102.059l.06.027a.2.2 0 0 0 .034.014c.006.002.011.002.017.006.051.018.104.032.159.043l.02.006c.06.01.122.018.184.018.027 0 .056-.005.084-.007.027-.002.055-.004.08-.008a1.534 1.534 0 0 0 .173-.043c.013-.004.028-.006.04-.011a1.043 1.043 0 0 0 .602-.6Z"/>
    <path fill="#000" d="M46.483 33.55a1.053 1.053 0 0 0-1.362.605L37.3 54.466 30.726 37.38a1.056 1.056 0 0 0-1.97.753l7.562 19.645c.002.008.007.013.01.02a.935.935 0 0 0 .058.122l.016.027c.018.031.04.062.062.091.01.011.016.024.026.035a.855.855 0 0 0 .116.118c.028.024.055.045.086.067.009.008.02.015.03.022.036.024.074.046.114.066l.035.016c.018.007.034.016.053.024.009.003.016.003.025.007a1.057 1.057 0 0 0 .175.047c.059.01.117.017.177.017l.013-.002a.98.98 0 0 0 .162-.015l.057-.012c.04-.01.08-.02.12-.033.01-.004.018-.004.03-.008a.562.562 0 0 0 .058-.025l.025-.01a.973.973 0 0 0 .12-.07l.022-.016c.033-.024.064-.048.095-.075.008-.005.015-.013.022-.018.033-.031.064-.064.093-.098l.022-.03a.948.948 0 0 0 .067-.098c.004-.007.01-.014.013-.022a.985.985 0 0 0 .06-.125l.01-.018 8.803-22.87a1.057 1.057 0 0 0-.61-1.362Z"/>
  </symbol>

  <symbol id="main-icon" xmlns="http://www.w3.org/2000/svg" fill="none">
    <path fill="currentColor" d="M23.2 7.36v18.88c0 .36-.24.6-.6.6h-4.48c-.36 0-.56-.24-.6-.6l-.12-1.48c-1.4 1.56-3.28 2.64-5.76 2.64-5.56 0-9.68-4.68-9.68-10.52S6.08 6.36 11.64 6.36c2.36 0 4.32 1.12 5.76 2.76l.12-1.68c.04-.36.24-.6.6-.6h4.48c.36-.08.6.16.6.52Zm-6.28 9.44c0-2.68-1.92-4.92-4.52-4.92-2.64 0-4.56 2.12-4.56 4.92 0 2.84 1.92 4.96 4.56 4.96 2.6 0 4.52-2.28 4.52-4.96ZM41.08 8.24l-1.36 3.52c-.16.48-.52.56-1 .44-.4-.12-.92-.32-1.68-.32-2.56 0-4.08 1.88-4.08 4.36v10c0 .36-.24.6-.6.6h-4.92c-.36 0-.6-.24-.6-.6V7.36c0-.36.24-.6.6-.6h4.72c.36 0 .56.24.6.6l.16 2.32c1.04-1.96 2.72-3.4 5.16-3.4 1.2 0 2.2.48 2.8 1.04.32.32.32.64.2.92ZM55.8 20.12c.32-.28.6-.28.92 0l2.96 2.84c.24.24.28.56.04.88-1.88 2.16-4.68 3.56-7.88 3.56-5.8 0-10.28-4.64-10.28-10.52S46.08 6.36 51.84 6.36c3.12 0 5.88 1.4 7.76 3.56.24.28.2.6-.04.88l-3 2.8c-.28.28-.56.24-.88-.04-1.16-1-2.32-1.56-3.68-1.56-2.68 0-4.56 2.08-4.56 4.84s1.88 4.84 4.56 4.84c1.44 0 2.64-.56 3.8-1.56ZM82.64 7.36v18.88c0 .36-.24.6-.6.6h-4.48c-.36 0-.56-.24-.6-.6l-.12-1.48c-1.4 1.56-3.28 2.64-5.76 2.64-5.56 0-9.68-4.68-9.68-10.52s4.12-10.52 9.68-10.52c2.36 0 4.32 1.12 5.76 2.76l.12-1.68c.04-.36.24-.6.6-.6h4.48c.36-.08.6.16.6.52Zm-6.28 9.44c0-2.68-1.92-4.92-4.52-4.92-2.64 0-4.56 2.12-4.56 4.92 0 2.84 1.92 4.96 4.56 4.96 2.6 0 4.52-2.28 4.52-4.96ZM100.52 8.24l-1.36 3.52c-.16.48-.52.56-1.04.44-.4-.12-.92-.32-1.68-.32-2.56 0-4.08 1.88-4.08 4.36v10c0 .36-.24.6-.6.6h-4.92c-.36 0-.6-.24-.6-.6V7.36c0-.36.24-.6.6-.6h4.72c.36 0 .56.24.6.6l.16 2.32c1.04-1.96 2.72-3.4 5.16-3.4 1.2 0 2.2.48 2.8 1.04.36.32.36.64.24.92ZM115.08 7.36v3.72c0 .36-.24.6-.6.6h-2.88V26.2c0 .36-.24.6-.6.6h-4.92c-.36 0-.6-.24-.6-.6V11.72h-2.88c-.36 0-.6-.24-.6-.6V7.36c0-.36.24-.6.6-.6h2.88V1.24c0-.36.24-.6.6-.6H111c.36 0 .6.24.6.6v5.52h2.88c.36 0 .6.24.6.6ZM138.04 7.36v18.88c0 .36-.24.6-.6.6h-4.48c-.36 0-.56-.24-.6-.6l-.12-1.48c-1.4 1.56-3.28 2.64-5.76 2.64-5.56 0-9.68-4.68-9.68-10.52s4.12-10.52 9.68-10.52c2.36 0 4.32 1.12 5.76 2.76l.12-1.68c.04-.36.24-.6.6-.6h4.48c.36-.08.6.16.6.52Zm-6.28 9.44c0-2.68-1.92-4.92-4.52-4.92-2.64 0-4.56 2.12-4.56 4.92 0 2.84 1.92 4.96 4.56 4.96 2.6 0 4.52-2.28 4.52-4.96Z"/>
  </symbol>

  <symbol id="stripe-right-white" xmlns="http://www.w3.org/2000/svg" fill="none">
    <path fill="currentColor" d="M2.917 10.93c0 .458.375.833.833.833h10.442l-3.517 3.516a.87.87 0 0 0 0 1.234.87.87 0 0 0 1.233 0l4.925-4.917a.846.846 0 0 0 .25-.658.91.91 0 0 0-.25-.659l-4.925-4.916a.87.87 0 0 0-1.233 0 .87.87 0 0 0 0 1.233l3.517 3.5H3.75a.836.836 0 0 0-.833.833Z"/>
  </symbol>

  <symbol id="twitter" xmlns="http://www.w3.org/2000/svg" fill="none">
    <path fill="currentColor" d="M21.14 4.705a8.41 8.41 0 0 1-2.389.657 4.175 4.175 0 0 0 1.831-2.303 8.266 8.266 0 0 1-2.643 1.01 4.16 4.16 0 0 0-7.197 2.845c0 .326.035.644.108.95A11.79 11.79 0 0 1 2.273 3.51a4.167 4.167 0 0 0 1.29 5.56 4.06 4.06 0 0 1-1.887-.52v.051c0 2.02 1.435 3.7 3.338 4.082a4.189 4.189 0 0 1-1.095.147c-.267 0-.529-.026-.782-.078a4.167 4.167 0 0 0 3.888 2.892 8.34 8.34 0 0 1-6.161 1.723 11.653 11.653 0 0 0 6.372 1.882c7.657 0 11.842-6.347 11.842-11.85 0-.181-.004-.362-.013-.538a8.54 8.54 0 0 0 2.076-2.157Z"/>
  </symbol>

  <symbol id="youtube" xmlns="http://www.w3.org/2000/svg" fill="none">
    <path fill="#000" d="M15.714 11c0-.303-.123-.524-.368-.663L9.06 6.41c-.253-.164-.52-.172-.798-.025a.731.731 0 0 0-.405.688v7.857c0 .31.135.54.405.687a.849.849 0 0 0 .38.098c.165 0 .304-.04.418-.122l6.286-3.929c.245-.139.368-.36.368-.663ZM22 11c0 .786-.004 1.4-.012 1.842-.008.442-.043 1-.105 1.675a13.566 13.566 0 0 1-.276 1.811c-.13.598-.413 1.101-.847 1.51-.434.41-.941.647-1.522.712-1.817.205-4.563.307-8.238.307s-6.42-.102-8.238-.307a2.616 2.616 0 0 1-1.528-.712 2.854 2.854 0 0 1-.853-1.51 15.196 15.196 0 0 1-.264-1.81 24.08 24.08 0 0 1-.105-1.676A105.79 105.79 0 0 1 0 11c0-.786.004-1.4.012-1.841.008-.442.043-1 .105-1.676a13.57 13.57 0 0 1 .276-1.81c.13-.598.413-1.102.847-1.511.434-.41.941-.647 1.522-.712C4.58 3.245 7.325 3.143 11 3.143s6.42.102 8.238.307c.58.065 1.09.303 1.528.712.438.41.723.913.853 1.51.115.532.203 1.136.264 1.81.062.676.097 1.235.105 1.677C21.996 9.6 22 10.214 22 11Z"/>
  </symbol>
</svg>